PathFileType	4	(X/Y/Z)	C:/Users/opensim2020/Desktop/walking_exp_matlab/subject06_walking18_straight_01.trc	
DataRate	CameraRate	NumFrames	NumMarkers	Units	OrigDataRate	OrigDataStartFrame	OrigNumFrames	
100.00	100.00	6	47	mm	100.00	1018	396	
Frame#	Time	LFHD			RFHD			LBHD			RBHD			C7			T10			CLAV			STRN			RBAK			LSHO			LUPA			LELB			LFRM			LWRA			LWRB			LFIN			RSHO			RUPA			RELB			RFRM			RWRA			RWRB			RFIN			LASI			RASI			LPSI			RPSI			LTHI			LKNE			LTIB			LANK			LHEE			LTOE			RTHI			RKNE			RTIB			RANK			RHEE			RTOE			*39			*40			*41			*42			*43			*44			*45			*46			
		X1	Y1	Z1	X2	Y2	Z2	X3	Y3	Z3	X4	Y4	Z4	X5	Y5	Z5	X6	Y6	Z6	X7	Y7	Z7	X8	Y8	Z8	X9	Y9	Z9	X10	Y10	Z10	X11	Y11	Z11	X12	Y12	Z12	X13	Y13	Z13	X14	Y14	Z14	X15	Y15	Z15	X16	Y16	Z16	X17	Y17	Z17	X18	Y18	Z18	X19	Y19	Z19	X20	Y20	Z20	X21	Y21	Z21	X22	Y22	Z22	X23	Y23	Z23	X24	Y24	Z24	X25	Y25	Z25	X26	Y26	Z26	X27	Y27	Z27	X28	Y28	Z28	X29	Y29	Z29	X30	Y30	Z30	X31	Y31	Z31	X32	Y32	Z32	X33	Y33	Z33	X34	Y34	Z34	X35	Y35	Z35	X36	Y36	Z36	X37	Y37	Z37	X38	Y38	Z38	X39	Y39	Z39	X40	Y40	Z40	X41	Y41	Z41	X42	Y42	Z42	X43	Y43	Z43	X44	Y44	Z44	X45	Y45	Z45	X46	Y46	Z46	X47	Y47	Z47	

1	0.000	1380.38660	-813.72858	1676.52185	1510.90491	-802.05042	1660.92566	1390.12561	-948.70990	1626.70410	1518.51367	-935.24414	1616.01111	1444.50500	-953.95587	1468.83301	1454.30054	-1000.31854	1140.97009	1431.46204	-847.42072	1386.32007	1419.71204	-817.83618	1208.46863	1531.11023	-1025.01135	1299.54004	1278.23767	-920.28784	1423.06519	1201.80493	-930.88568	1222.51282	1188.52661	-933.74683	1110.24207	1164.93030	-895.19672	964.76154	1206.31702	-822.56036	857.96509	1168.37793	-881.66467	846.15039	1166.47058	-829.47351	771.77594	1595.37646	-873.61475	1420.45020	1683.15051	-893.19226	1220.56433	1691.95215	-876.64813	1099.34851	1705.96509	-855.62274	980.32117	1669.05701	-796.71863	842.50702	1714.35364	-846.55994	842.79889	1711.75464	-808.60608	766.94116	1327.74854	-835.68658	976.81006	1546.81323	-820.98822	978.00256	1366.01160	-991.14862	1005.17969	1533.94019	-974.56482	1008.97375	1278.10425	-857.24805	663.94464	1303.93579	-828.18884	504.29529	1307.60840	-975.20227	302.58994	1341.62891	-1065.13550	155.25635	1391.69055	-1104.21997	156.74261	1327.91321	-957.41681	61.39007	1594.97864	-887.10724	643.00262	1570.04126	-890.27997	517.26520	1556.57288	-948.69513	257.07529	1502.95166	-968.58429	72.99186	1458.54236	-1009.33411	50.79065	1500.90918	-813.33545	36.75094	1449.36548	-906.98029	1715.92212																					 
2	0.010	1380.81116	-809.29877	1676.52600	1511.33765	-797.45874	1660.99976	1390.80334	-944.21271	1626.69031	1519.16785	-930.56244	1616.08289	1445.25049	-949.45703	1468.84143	1455.26941	-995.67670	1140.91418	1432.01917	-843.71997	1386.12891	1420.38354	-813.19659	1208.58765	1532.16956	-1020.31677	1299.53027	1278.93677	-916.05023	1423.02795	1202.29956	-927.34998	1222.47217	1189.38647	-930.72858	1110.23743	1165.52539	-893.52179	964.36145	1206.76685	-822.20435	856.69299	1168.74084	-881.41754	845.68433	1166.73523	-830.20380	770.63794	1596.03259	-868.84479	1420.50354	1683.71948	-886.99188	1220.50500	1692.45630	-870.06348	1099.42456	1706.76038	-848.82196	980.46234	1670.12366	-790.24347	842.44098	1715.47205	-839.97595	842.97144	1713.16394	-802.02527	767.03186	1328.74829	-829.47711	977.58936	1547.93530	-816.44775	977.93750	1366.70813	-986.25031	1005.24756	1534.67590	-970.15607	1008.75293	1278.37976	-849.55316	664.90906	1304.58630	-819.89032	505.48010	1307.40576	-960.72571	299.12604	1340.96631	-1045.41870	148.45830	1390.99036	-1084.52551	148.29601	1326.94788	-933.95508	59.08307	1595.12268	-883.66913	642.67688	1570.05945	-887.56873	517.00885	1556.56128	-947.32928	257.03464	1502.79175	-968.43439	73.11516	1458.38745	-1009.30017	50.95177	1500.87415	-813.31067	36.72683	1449.93091	-902.39026	1715.93445																					 
3	0.020	1381.17114	-804.87012	1676.45056	1511.63062	-792.90668	1660.96582	1391.41309	-939.81354	1626.65222	1519.75842	-925.91968	1616.07019	1445.97449	-944.91235	1468.78113	1456.10315	-990.99188	1140.80530	1432.59204	-838.35260	1386.47180	1421.04163	-808.50739	1208.62854	1533.17798	-1015.57660	1299.45728	1279.59851	-911.84448	1422.94434	1203.14233	-924.01007	1222.39746	1190.17615	-927.78656	1110.20361	1166.21814	-891.84961	963.95258	1207.24963	-821.90698	855.44916	1169.15784	-881.26038	845.19543	1167.14209	-830.80450	769.55359	1596.61987	-863.97186	1420.51599	1684.14172	-881.07306	1220.38342	1692.92249	-863.97308	1099.52722	1707.33923	-842.69971	980.48438	1671.01123	-783.90454	842.32257	1716.60571	-833.48468	843.08148	1714.34912	-795.64056	767.07623	1329.88232	-824.78241	977.84070	1548.71521	-812.29150	977.61658	1367.30042	-981.35443	1005.28235	1535.33813	-965.82294	1008.45557	1278.43347	-842.51422	666.12000	1305.08875	-811.77191	506.56326	1307.06970	-946.30884	295.54483	1340.36865	-1025.20349	141.57664	1390.45813	-1064.22632	139.79652	1325.98645	-910.18280	56.96107	1595.19910	-880.19318	642.31006	1570.18799	-884.50592	516.59937	1556.51050	-945.97803	256.99814	1502.54016	-968.36945	73.19128	1458.00122	-1009.04102	50.87041	1500.79456	-813.28455	36.68977	1450.43872	-897.89838	1715.90686																					 
4	0.030	1381.55603	-800.45990	1676.39807	1512.02051	-788.30994	1660.97925	1391.99011	-935.39410	1626.54993	1520.29541	-921.33569	1616.02966	1446.62891	-940.36462	1468.72180	1456.91528	-986.31335	1140.71069	1433.00574	-834.63361	1386.09607	1421.74658	-803.76758	1208.65283	1534.11499	-1010.88324	1299.41040	1280.13855	-907.59119	1422.82019	1203.85425	-920.52759	1222.17334	1190.93835	-924.97113	1110.09204	1166.91199	-890.74500	963.61914	1207.81885	-821.60675	854.30853	1169.71497	-881.02454	844.59540	1167.63818	-831.42328	768.50305	1597.19739	-859.06989	1420.39160	1684.67749	-875.51459	1220.32605	1693.36743	-857.76123	1099.30591	1708.00769	-836.44958	980.48846	1671.92407	-777.76471	842.22687	1717.54248	-827.32764	843.18054	1715.58557	-789.38782	767.07617	1330.96423	-820.00476	978.13293	1549.75439	-807.98004	977.47241	1367.87402	-976.46313	1005.27307	1535.90637	-961.49506	1008.09613	1278.83630	-835.14850	666.80640	1305.42334	-803.97284	507.56897	1306.87976	-931.65015	291.80145	1339.87158	-1004.61731	134.89722	1390.02332	-1043.28735	131.38808	1325.18640	-886.04736	55.04935	1595.33618	-876.81415	641.98639	1570.39038	-881.64722	516.30737	1556.56177	-944.70154	256.88998	1502.54785	-968.19952	73.30963	1457.84045	-1009.09119	51.08633	1500.69702	-813.30627	36.65177	1450.88904	-893.39142	1715.86340																					 
5	0.040	1381.83118	-796.16473	1676.29822	1512.38684	-783.71863	1660.99292	1392.49304	-930.95813	1626.35730	1520.80127	-916.78070	1615.94189	1447.22058	-935.79193	1468.59375	1457.58606	-981.65521	1140.54944	1433.55798	-829.27106	1386.32715	1422.28430	-799.05719	1208.57947	1534.97803	-1006.07019	1299.35986	1280.64392	-903.24414	1422.65833	1204.65564	-917.75336	1222.15710	1191.68433	-922.25775	1109.94397	1167.58459	-889.28589	963.14478	1208.46301	-821.32733	853.15302	1170.36963	-880.92761	844.10022	1168.21045	-831.89722	767.50092	1597.63245	-854.16046	1420.31287	1685.10083	-869.98749	1220.15454	1693.97778	-851.76630	1099.31787	1708.79102	-830.12671	980.54852	1672.74170	-771.86444	842.08820	1718.46899	-821.23370	843.16125	1716.80542	-783.32037	767.15942	1331.97107	-815.03204	978.37335	1550.80237	-803.57239	977.19312	1368.41626	-971.63629	1005.39343	1536.38660	-957.20734	1007.70795	1278.91406	-828.35046	667.62531	1305.54907	-796.33337	508.46237	1306.57617	-916.86804	288.04211	1339.48547	-983.43500	128.34361	1389.63220	-1021.94727	123.24553	1324.60803	-861.52509	53.43543	1595.30151	-873.46234	641.51959	1570.53857	-878.82642	515.87909	1556.68872	-943.54437	256.76407	1502.45264	-968.12030	73.37718	1457.71948	-1009.12280	51.24498	1500.60718	-813.34821	36.57935	1451.27051	-888.97028	1715.74194																					 
6	0.050	1382.10645	-791.70508	1676.25964	1512.56824	-779.27008	1660.92456	1392.91895	-926.54956	1626.13831	1521.21069	-912.19763	1615.81763	1447.71851	-931.17316	1468.44543	1458.23730	-976.94556	1140.40173	1433.86353	-825.40918	1385.92883	1422.83386	-794.41632	1208.45178	1535.78308	-1001.34113	1299.24463	1281.08777	-898.79584	1422.40393	1205.44666	-914.32202	1221.84277	1192.35754	-919.87256	1109.84583	1168.29480	-887.87885	962.72852	1209.20276	-821.05835	852.11780	1171.11926	-880.73865	843.64075	1168.85254	-832.71320	766.49341	1597.99036	-849.21191	1420.19739	1685.52466	-864.83557	1220.11194	1694.54102	-845.98285	1099.24438	1709.39221	-824.30017	980.44092	1673.52014	-766.09393	841.93243	1719.34790	-815.45441	843.21832	1717.77173	-777.51917	767.06543	1332.98840	-809.95190	978.62024	1552.13599	-798.77222	977.12958	1368.82703	-966.62274	1005.24023	1536.81372	-952.81097	1007.27039	1278.82532	-822.09302	668.27692	1305.62866	-788.95532	509.23135	1306.30566	-901.74255	284.39120	1339.18481	-961.87140	122.11672	1389.11255	-999.80603	115.15240	1324.38562	-836.89807	52.23305	1595.57703	-870.15521	641.22803	1570.74768	-876.06189	515.48352	1556.94641	-942.40289	256.66391	1502.40942	-968.05139	73.49324	1457.63770	-1009.16797	51.45242	1500.55933	-813.35132	36.53913	1451.64587	-884.60297	1715.48059																					 
